<?xml version="1.0" encoding="UTF-8"?><svg id="Layer_2" xmlns="http://www.w3.org/2000/svg" viewBox="0 0 16 16"><defs><style>.cls-1,.cls-2,.cls-3{stroke-width:0px;}.cls-2{fill:#6bdbc6;}.cls-3{fill:#8083ae;}</style></defs><rect class="cls-1" x="0" width="16" height="16"/><path class="cls-2" d="m7.95,5.05c.31,0,.57.03.79.1.22.07.41.16.56.27.15.11.27.24.36.38.09.14.16.28.21.43.05.14.08.28.1.42.02.13.02.25.02.35,0,.04,0,.09-.01.15,0,.06-.03.12-.07.17-.04.06-.11.1-.2.14-.09.04-.22.06-.39.06-.06,0-.13,0-.21-.01-.08,0-.16-.03-.24-.05-.08-.03-.14-.07-.2-.13-.06-.05-.08-.13-.08-.23,0-.15,0-.28-.03-.4-.02-.12-.05-.22-.1-.3-.05-.08-.11-.15-.2-.19-.08-.04-.19-.07-.32-.07s-.24.03-.31.09c-.07.06-.13.12-.16.19-.04.08-.06.17-.07.27v2.64c0,.12.03.23.07.32.03.08.09.15.16.22.07.07.18.1.31.1s.24-.03.32-.08.15-.13.2-.22c.05-.09.08-.2.1-.32.02-.12.03-.24.03-.38,0-.04,0-.08.02-.13.01-.04.05-.09.1-.12s.12-.07.22-.09c.1-.03.23-.04.4-.04s.3.02.39.06c.09.04.16.08.2.13.04.05.07.1.07.14,0,.05.01.08.01.09,0,.31-.05.58-.15.82-.1.24-.25.44-.44.61s-.41.29-.67.38c-.26.09-.55.13-.86.13-.05,0-.13,0-.24-.01s-.24-.03-.38-.07c-.14-.04-.28-.09-.43-.16-.15-.07-.28-.17-.4-.3s-.22-.29-.3-.48c-.08-.19-.12-.43-.12-.71v-2.33c0-.23.03-.43.08-.6.06-.18.13-.33.22-.46.09-.13.19-.24.31-.33s.24-.16.36-.22c.28-.13.61-.21.97-.23Z"/><path class="cls-3" d="m10.67,3.13c.25,0,.49.03.71.1.22.06.41.16.57.29.16.13.29.28.38.47.09.19.14.41.14.66v6.48c0,.22-.02.41-.07.57-.05.17-.11.31-.19.43-.08.12-.16.22-.26.31-.1.08-.2.15-.3.21-.24.13-.51.2-.81.22h-6.69c-.16,0-.28-.03-.37-.08-.09-.05-.15-.13-.19-.22-.04-.09-.06-.19-.07-.31,0-.11-.01-.23-.01-.35v-7.82c0-.12,0-.24.01-.35,0-.11.03-.22.07-.3.04-.09.1-.16.19-.21.09-.05.21-.08.37-.08h6.52Zm-5.88.98v7.76h5.85c.12,0,.23-.03.32-.08.04-.02.08-.05.12-.08.04-.03.07-.07.1-.12.03-.05.05-.1.07-.16.02-.06.03-.14.03-.22v-6.35c0-.09,0-.17-.03-.24-.02-.07-.04-.13-.07-.19-.03-.05-.07-.1-.1-.13-.04-.04-.08-.07-.12-.09-.09-.05-.2-.08-.32-.09h-5.85Z"/></svg>